<svg height="375.3999996185303" version="1.1" width="696.25" xmlns="http://www.w3.org/2000/svg" xmlns:xlink="http://www.w3.org/1999/xlink" style="overflow: hidden; position: relative; left: -0.400024px;" viewBox="0 0 696.25 375.3999996185303" preserveAspectRatio="xMidYMid meet"><desc>Created with Raphaël @@VERSION</desc><defs><path stroke-linecap="round" d="M5,0 0,2.5 5,5z" id="raphael-marker-block"></path><marker id="raphael-marker-endblock33-obj6724" markerHeight="3" markerWidth="3" orient="auto" refX="1.5" refY="1.5"><use xlink:href="#raphael-marker-block" transform="rotate(180 1.5 1.5) scale(0.6,0.6)" stroke-width="1.6667" fill="black" stroke="none"></use></marker><marker id="raphael-marker-endblock33-obj6725" markerHeight="3" markerWidth="3" orient="auto" refX="1.5" refY="1.5"><use xlink:href="#raphael-marker-block" transform="rotate(180 1.5 1.5) scale(0.6,0.6)" stroke-width="1.6667" fill="black" stroke="none"></use></marker><marker id="raphael-marker-endblock33-obj6727" markerHeight="3" markerWidth="3" orient="auto" refX="1.5" refY="1.5"><use xlink:href="#raphael-marker-block" transform="rotate(180 1.5 1.5) scale(0.6,0.6)" stroke-width="1.6667" fill="black" stroke="none"></use></marker><marker id="raphael-marker-endblock33-obj6729" markerHeight="3" markerWidth="3" orient="auto" refX="1.5" refY="1.5"><use xlink:href="#raphael-marker-block" transform="rotate(180 1.5 1.5) scale(0.6,0.6)" stroke-width="1.6667" fill="black" stroke="none"></use></marker><marker id="raphael-marker-endblock33-obj6731" markerHeight="3" markerWidth="3" orient="auto" refX="1.5" refY="1.5"><use xlink:href="#raphael-marker-block" transform="rotate(180 1.5 1.5) scale(0.6,0.6)" stroke-width="1.6667" fill="black" stroke="none"></use></marker></defs><rect x="0" y="0" width="125" height="36" rx="20" ry="20" fill="#ffffff" stroke="#000000" style="" stroke-width="3" class="flowchart" id="st" transform="matrix(1,0,0,1,48.5,40.5)"></rect><text style="text-anchor: start; font-family: &quot;Arial&quot;; font-size: 14px;" x="10" y="18" text-anchor="start" font-family="&quot;Arial&quot;" font-size="14px" stroke="none" fill="#000000" id="stt" class="flowchartt" transform="matrix(1,0,0,1,48.5,40.5)" stroke-width="1"><tspan dy="5">Request for help</tspan></text><path style="" fill="#ffffff" stroke="#000000" d="M45.375,26.09999942779541L0,52.19999885559082L90.75,104.39999771118164L181.5,52.19999885559082L90.75,0L0,52.19999885559082" stroke-width="3" id="teamcond" class="flowchart" transform="matrix(1,0,0,1,20.25,132.8)"></path><text style="text-anchor: start; font-family: &quot;Arial&quot;; font-size: 14px;" x="50.375" y="52.19999885559082" text-anchor="start" font-family="&quot;Arial&quot;" font-size="14px" stroke="none" fill="#000000" id="teamcondt" class="flowchartt" transform="matrix(1,0,0,1,20.25,132.8)" stroke-width="1"><tspan dy="-11.799997329711914">Does it match </tspan><tspan dy="16.8" x="50.375">the team's</tspan><tspan dy="16.8" x="50.375">objective?</tspan></text><rect x="0" y="0" width="68" height="52.79999923706055" rx="20" ry="20" fill="#ffffff" stroke="#000000" style="" stroke-width="3" class="flowchart" id="help" transform="matrix(1,0,0,1,77,319.3)"></rect><text style="text-anchor: start; font-family: &quot;Arial&quot;; font-size: 14px;" x="10" y="26.399999618530273" text-anchor="start" font-family="&quot;Arial&quot;" font-size="14px" stroke="none" fill="#000000" id="helpt" class="flowchartt" transform="matrix(1,0,0,1,77,319.3)" stroke-width="1"><tspan dy="-3.3999977111816406">Provide</tspan><tspan dy="16.8" x="10">help</tspan></text><path style="" fill="#ffffff" stroke="#000000" d="M52.5,26.25L0,52.5L105,105L210,52.5L105,0L0,52.5" stroke-width="3" id="teamcond2" class="flowchart" transform="matrix(1,0,0,1,257.75,132.5)"></path><text style="text-anchor: start; font-family: &quot;Arial&quot;; font-size: 14px;" x="57.5" y="52.5" text-anchor="start" font-family="&quot;Arial&quot;" font-size="14px" stroke="none" fill="#000000" id="teamcond2t" class="flowchartt" transform="matrix(1,0,0,1,257.75,132.5)" stroke-width="1"><tspan dy="-11.799999237060547">Does it match</tspan><tspan dy="16.8" x="57.5">a different</tspan><tspan dy="16.8" x="57.5">team's objective?</tspan></text><rect x="0" y="0" width="89" height="52.79999923706055" rx="0" ry="0" fill="#ffffff" stroke="#000000" style="" stroke-width="3" class="flowchart" id="refer" transform="matrix(1,0,0,1,318.25,319.6)"></rect><text style="text-anchor: start; font-family: &quot;Arial&quot;; font-size: 14px;" x="10" y="26.399999618530273" text-anchor="start" font-family="&quot;Arial&quot;" font-size="14px" stroke="none" fill="#000000" id="refert" class="flowchartt" transform="matrix(1,0,0,1,318.25,319.6)" stroke-width="1"><tspan dy="-3.3999977111816406">Refer to</tspan><tspan dy="16.8" x="10">other team</tspan></text><rect x="0" y="0" width="129" height="52.79999923706055" rx="0" ry="0" fill="#ffffff" stroke="#000000" style="" stroke-width="3" class="flowchart" id="mgmt" transform="matrix(1,0,0,1,564.25,158.6)"></rect><text style="text-anchor: start; font-family: &quot;Arial&quot;; font-size: 14px;" x="10" y="26.399999618530273" text-anchor="start" font-family="&quot;Arial&quot;" font-size="14px" stroke="none" fill="#000000" id="mgmtt" class="flowchartt" transform="matrix(1,0,0,1,564.25,158.6)" stroke-width="1"><tspan dy="-3.3999977111816406">Tell management</tspan><tspan dy="16.8" x="10">about the need</tspan></text><path style="" fill="none" stroke="#000000" d="M111,76.5C111,76.5,111,114.95084194021808,111,128.2997426333309" stroke-width="3" marker-end="url(#raphael-marker-endblock33-obj6724)"></path><path style="" fill="none" stroke="#000000" d="M111,237.19999885559082C111,237.19999885559082,111,297.62640668812173,111,314.7983643827179" stroke-width="3" marker-end="url(#raphael-marker-endblock33-obj6725)"></path><text style="text-anchor: start; font-family: &quot;Arial&quot;; font-size: 14px;" x="116" y="247.19999885559082" text-anchor="start" font-family="&quot;Arial&quot;" font-size="14px" stroke="none" fill="#000000" stroke-width="1"><tspan dy="5.000001907348633">yes</tspan></text><path style="" fill="none" stroke="#000000" d="M201.75,185C201.75,185,239.95077085494995,185,253.25016031763516,185" stroke-width="3" marker-end="url(#raphael-marker-endblock33-obj6727)"></path><text style="text-anchor: start; font-family: &quot;Arial&quot;; font-size: 14px;" x="206.75" y="175" text-anchor="start" font-family="&quot;Arial&quot;" font-size="14px" stroke="none" fill="#000000" stroke-width="1"><tspan dy="5">no</tspan></text><path style="" fill="none" stroke="#000000" d="M362.75,237.5C362.75,237.5,362.75,297.9264078325309,362.75,315.0983655271271" stroke-width="3" marker-end="url(#raphael-marker-endblock33-obj6729)"></path><text style="text-anchor: start; font-family: &quot;Arial&quot;; font-size: 14px;" x="367.75" y="247.5" text-anchor="start" font-family="&quot;Arial&quot;" font-size="14px" stroke="none" fill="#000000" stroke-width="1"><tspan dy="5">yes</tspan></text><path style="" fill="none" stroke="#000000" d="M467.75,185C467.75,185,540.7285529375076,185,559.7571404710179,185" stroke-width="3" marker-end="url(#raphael-marker-endblock33-obj6731)"></path><text style="text-anchor: start; font-family: &quot;Arial&quot;; font-size: 14px;" x="472.75" y="175" text-anchor="start" font-family="&quot;Arial&quot;" font-size="14px" stroke="none" fill="#000000" stroke-width="1"><tspan dy="5">no</tspan></text></svg>